<svg xmlns="http://www.w3.org/2000/svg" width="61" height="60" viewBox="0 0 61 60">
  <g id="Group_28" data-name="Group 28" transform="translate(-197 -187)">
    <rect id="Rectangle_25" data-name="Rectangle 25" width="61" height="60" rx="15" transform="translate(197 187)" fill="#fff"/>
    <g id="Group_27" data-name="Group 27" transform="translate(9 147)">
      <g id="Group_5" data-name="Group 5" transform="translate(195.307 45)">
        <g id="Group_4" data-name="Group 4">
          <path id="Path_9" data-name="Path 9" d="M211.953,99.029h2.913a38.406,38.406,0,0,0,2.1,5.844,20.4,20.4,0,0,0,3.183,4.873,14.408,14.408,0,0,0,4.37,3.38,12.743,12.743,0,0,0,5.808,1.259,13.126,13.126,0,0,0,4.334-.648,7.581,7.581,0,0,0,3-1.837,7.505,7.505,0,0,0,1.708-2.791,11.218,11.218,0,0,0,.558-3.691,10.253,10.253,0,0,0-1.726-5.707,10.639,10.639,0,0,0-5.143-4.016q-2.338-.931-5.358-2.059T222.49,91.5a16.919,16.919,0,0,1-6.707-5.087,13.21,13.21,0,0,1-2.392-8.215,12.57,12.57,0,0,1,1.187-5.429,14.146,14.146,0,0,1,3.381-4.494,15.317,15.317,0,0,1,4.927-2.93,16.741,16.741,0,0,1,5.021-1.035c-.4-.016-.808-.026-1.213-.026H204.427v2.55a20.148,20.148,0,0,1,2.227.323,9.8,9.8,0,0,1,2.406.79,3.1,3.1,0,0,1,1.634,1.544,5.546,5.546,0,0,1,.413,2.191v36.776a4.667,4.667,0,0,1-.485,2.209,3.069,3.069,0,0,1-1.562,1.383,8.605,8.605,0,0,1-2.209.449,24.106,24.106,0,0,1-2.711.2v2.55h8.28Z" transform="translate(-204.14 -64.288)" fill="#8cc540"/>
        </g>
      </g>
      <g id="Group_6" data-name="Group 6" transform="translate(211.283 48.129)">
        <path id="Path_10" data-name="Path 10" d="M290.889,85.8A22.2,22.2,0,0,0,285,78.317l.2,11.962h-2.913q-.791-2.913-1.78-5.574a19.73,19.73,0,0,0-2.572-4.819,11.8,11.8,0,0,0-3.776-3.326,11.1,11.1,0,0,0-5.467-1.241,8.349,8.349,0,0,0-5.826,2.194,6.974,6.974,0,0,0-2.409,5.359,9.233,9.233,0,0,0,1.546,5.484,11.31,11.31,0,0,0,4.5,3.578,55.862,55.862,0,0,0,5.161,2.176q2.535.917,4.909,1.96a36.629,36.629,0,0,1,4.154,2.122,15.634,15.634,0,0,1,3.471,2.769,11.925,11.925,0,0,1,2.392,3.938,14.64,14.64,0,0,1,.773,4.981,15.038,15.038,0,0,1-1.09,5.781A23.658,23.658,0,0,0,291,109.252a24.476,24.476,0,0,0,2.442-11.277A27.239,27.239,0,0,0,290.889,85.8Z" transform="translate(-260.465 -75.318)" fill="#0071bc"/>
      </g>
    </g>
  </g>
</svg>
